<?xml version="1.0" encoding="UTF-8" standalone="no"?>
<!-- Created with Inkscape (http://www.inkscape.org/) -->

<svg
   xmlns:dc="http://purl.org/dc/elements/1.1/"
   xmlns:cc="http://creativecommons.org/ns#"
   xmlns:rdf="http://www.w3.org/1999/02/22-rdf-syntax-ns#"
   xmlns:svg="http://www.w3.org/2000/svg"
   xmlns="http://www.w3.org/2000/svg"
   xmlns:sodipodi="http://sodipodi.sourceforge.net/DTD/sodipodi-0.dtd"
   xmlns:inkscape="http://www.inkscape.org/namespaces/inkscape"
   width="1052.3622"
   height="744.09448"
   id="svg2"
   version="1.1"
   inkscape:version="0.48.2 r9819"
   sodipodi:docname="New document 1">
  <defs
     id="defs4" />
  <sodipodi:namedview
     id="base"
     pagecolor="#ffffff"
     bordercolor="#666666"
     borderopacity="1.0"
     inkscape:pageopacity="0.0"
     inkscape:pageshadow="2"
     inkscape:zoom="0.7"
     inkscape:cx="626.91036"
     inkscape:cy="374.41494"
     inkscape:document-units="px"
     inkscape:current-layer="layer1"
     showgrid="false"
     inkscape:window-width="1366"
     inkscape:window-height="716"
     inkscape:window-x="-8"
     inkscape:window-y="-8"
     inkscape:window-maximized="1" />
  <metadata
     id="metadata7">
    <rdf:RDF>
      <cc:Work
         rdf:about="">
        <dc:format>image/svg+xml</dc:format>
        <dc:type
           rdf:resource="http://purl.org/dc/dcmitype/StillImage" />
        <dc:title></dc:title>
      </cc:Work>
    </rdf:RDF>
  </metadata>
  <g
     inkscape:label="Layer 1"
     inkscape:groupmode="layer"
     id="layer1"
     transform="translate(0,-308.2677)">
    <g
       id="g3818">
      <path
         inkscape:connector-curvature="0"
         id="path3791"
         d="m 367.875,425.2677 c -43.88557,0.63034 -76.93077,23.62871 -69,85.40625 5.36734,41.80934 15.63665,46.14529 19.9375,67.09375 1.71096,8.33368 -2.74042,16.69824 -7.28125,27.90625 -89.2329,17.04724 -178.42134,48.96739 -191.8125,106.6875 47.69309,-21.0071 91.0658,-13.04076 134.28125,4.28125 0.21845,42.64536 -23.25902,88.97778 -2.15625,127.875 1.7122,-35.06295 66.46316,-77.89524 133.34375,-118.125 0.0102,-10e-4 0.021,10e-4 0.0312,0 0.24061,-0.0263 0.47771,-0.0348 0.71875,-0.0625 0.0831,-0.01 0.16687,-0.0215 0.25,-0.0312 0.0624,-0.007 0.12508,-0.0239 0.1875,-0.0312 1.04818,-0.12407 2.10041,-0.25512 3.15625,-0.40625 1.88558,-0.26996 3.78109,-0.58386 5.6875,-0.9375 0.95145,-0.17639 1.88796,-0.36588 2.84375,-0.5625 0.95669,-0.19681 1.91454,-0.40833 2.875,-0.625 0.22941,-0.0517 0.4579,-0.10339 0.6875,-0.15625 0.72761,-0.16753 1.45809,-0.32136 2.1875,-0.5 0.96275,-0.23583 1.94087,-0.49518 2.90625,-0.75 0.0636,-0.0168 0.12391,-0.0456 0.1875,-0.0625 0.38167,-0.10122 0.77424,-0.17712 1.15625,-0.28125 0.51929,-0.14158 1.04266,-0.29059 1.5625,-0.4375 0.95784,-0.27068 1.9157,-0.55527 2.875,-0.84375 0.59472,-0.17888 1.18614,-0.3769 1.78125,-0.5625 0.88486,-0.27588 1.77089,-0.55328 2.65625,-0.84375 0.46561,-0.15283 0.94059,-0.31195 1.40625,-0.46875 0.35448,-0.11934 0.70803,-0.25338 1.0625,-0.375 1.58326,-0.54327 3.16837,-1.09992 4.75,-1.6875 0.11373,-0.0422 0.23004,-0.0825 0.34375,-0.125 1.82736,-0.6826 3.64738,-1.38601 5.46875,-2.125 0.10361,-0.042 0.20892,-0.0828 0.3125,-0.125 1.52011,-0.61954 3.04916,-1.28054 4.5625,-1.9375 0.69801,-0.30303 1.39753,-0.59551 2.09375,-0.90625 9.19208,-4.10293 18.20185,-8.87412 26.8125,-14.125 1.68786,-1.02922 3.37726,-2.06004 5.03125,-3.125 1.8736,-1.20633 3.70629,-2.43906 5.53125,-3.6875 0.8021,-0.5486 1.58306,-1.10007 2.375,-1.65625 0.90273,-0.63402 1.79861,-1.26285 2.6875,-1.90625 0.38841,-0.28111 0.77057,-0.56091 1.15625,-0.84375 2.53218,-1.85704 5.00149,-3.76305 7.40625,-5.6875 1.20297,-0.96277 2.39448,-1.92883 3.5625,-2.90625 0.72348,-0.60536 1.44681,-1.20198 2.15625,-1.8125 0.096,-0.0826 0.18547,-0.16727 0.28125,-0.25 1.39657,-1.2064 2.75495,-2.43197 4.09375,-3.65625 0.0827,-0.0756 0.16757,-0.14311 0.25,-0.21875 2.77427,-2.54593 5.40721,-5.11434 7.90625,-7.71875 0.0569,-0.0593 0.0995,-0.12817 0.15625,-0.1875 1.22423,-1.27973 2.44213,-2.55441 3.59375,-3.84375 0.14307,-0.16017 0.29559,-0.30845 0.4375,-0.46875 0.45984,-0.51934 0.8962,-1.04199 1.34375,-1.5625 0.4466,-0.51937 0.87839,-1.04215 1.3125,-1.5625 0.1335,-0.15999 0.27395,-0.30868 0.40625,-0.46875 0.73043,-0.88382 1.43181,-1.77049 2.125,-2.65625 0.37916,-0.4843 0.726,-0.95283 1.09375,-1.4375 0.42149,-0.55539 0.84379,-1.10058 1.25,-1.65625 0.0925,-0.12654 0.18958,-0.24846 0.28125,-0.375 0.0221,-0.0305 0.0404,-0.0632 0.0625,-0.0937 3.76287,0.7926 7.73867,1.306 11.9375,1.5 3.41552,0.15781 6.79085,-0.17794 10.09375,-0.90625 0.19586,0.26724 0.42559,0.51406 0.625,0.78125 0.18501,0.24784 0.34321,0.50223 0.53125,0.75 0.36975,0.4874 0.74371,0.95048 1.125,1.4375 0.69207,0.88424 1.39582,1.77394 2.125,2.65625 0.1323,0.16007 0.27275,0.30876 0.40625,0.46875 0.59671,0.71526 1.19227,1.44291 1.8125,2.15625 0.28188,0.32419 0.55712,0.64503 0.84375,0.96875 0.14191,0.1603 0.29443,0.30858 0.4375,0.46875 1.08219,1.21155 2.19735,2.42186 3.34375,3.625 0.39943,0.41916 0.8118,0.83206 1.21875,1.25 0.5967,0.61285 1.19999,1.23378 1.8125,1.84375 0.58934,0.58684 1.17768,1.16612 1.78125,1.75 1.14227,1.10527 2.2775,2.18804 3.46875,3.28125 0.0824,0.0756 0.16734,0.14317 0.25,0.21875 1.39998,1.28025 2.84943,2.55187 4.3125,3.8125 0.0946,0.0815 0.18644,0.16862 0.28125,0.25 1.17856,1.01164 2.37714,2.00296 3.59375,3 0.49093,0.40244 0.97187,0.81887 1.46875,1.21875 2.72849,2.19523 5.54404,4.36104 8.4375,6.46875 0.5244,0.38197 1.0644,0.74624 1.59375,1.125 6.24917,4.4716 12.8449,8.7253 19.65625,12.65625 0.23807,0.13736 0.48014,0.26966 0.71875,0.40625 6.92353,3.96426 14.06354,7.58775 21.3125,10.8125 0.60503,0.26917 1.20613,0.54916 1.8125,0.8125 1.52177,0.66085 3.03388,1.31449 4.5625,1.9375 0.11244,0.0458 0.23127,0.0794 0.34375,0.125 3.66269,1.4855 7.35224,2.84203 11.03125,4.09375 0.28379,0.0966 0.55996,0.21739 0.84375,0.3125 1.43307,0.48018 2.88059,0.93294 4.3125,1.375 0.41723,0.1288 0.83297,0.28076 1.25,0.40625 0.009,0.003 0.0218,-0.003 0.0312,0 1.18873,0.35748 2.37612,0.70118 3.5625,1.03125 0.74256,0.20662 1.47744,0.39811 2.21875,0.59375 0.96538,0.25482 1.91225,0.51417 2.875,0.75 0.0613,0.015 0.12618,0.0163 0.1875,0.0312 0.90125,0.21967 1.82032,0.42235 2.71875,0.625 1.65311,0.37258 3.29619,0.71793 4.9375,1.03125 0.33471,0.0639 0.66585,0.12608 1,0.1875 0.19862,0.0365 0.39534,0.0894 0.59375,0.125 0.84578,0.1518 1.68946,0.30213 2.53125,0.4375 1.1717,0.18846 2.33697,0.34405 3.5,0.5 0.60592,0.0813 1.20916,0.1777 1.8125,0.25 0.11419,0.0137 0.22966,0.0179 0.34375,0.0312 0.13587,0.0159 0.27051,0.0158 0.40625,0.0312 0.18764,0.0213 0.37512,0.0421 0.5625,0.0625 0.0103,10e-4 0.0209,-10e-4 0.0312,0 66.88059,40.22976 131.63155,83.06205 133.34375,118.125 21.10277,-38.89722 -2.34345,-85.22964 -2.125,-127.875 43.21545,-17.32201 86.58816,-25.28835 134.28125,-4.28125 -13.39267,-57.72662 -102.60079,-89.64169 -191.84375,-106.6875 -4.54017,-11.20563 -8.99197,-19.57374 -7.28125,-27.90625 4.30085,-20.94846 14.57016,-25.28441 19.9375,-67.09375 17.49956,-136.31454 -164.48633,-83.71511 -222.25,-19 -2.17776,-0.27984 -4.43998,-0.44699 -6.78125,-0.53125 -3.08,-0.11085 -6.08004,0.0959 -8.96875,0.59375 C 489.66015,456.32358 420.85762,424.5067 367.875,425.2677 z"
         style="fill:#cccccc;fill-opacity:1;stroke:#cccccc;stroke-width:4;stroke-linecap:round;stroke-miterlimit:4;stroke-opacity:1;stroke-dasharray:none;stroke-dashoffset:0" />
      <path
         style="fill:#ffdddd;fill-opacity:1;stroke:#000000;stroke-width:6;stroke-linecap:round;stroke-miterlimit:4;stroke-opacity:1;stroke-dasharray:none;stroke-dashoffset:0"
         d="m 584.39747,584.07647 c 91.20822,3.23651 327.50985,27.34606 350,124.28571 -47.69309,-21.0071 -91.07026,-13.0363 -134.28571,4.28571 -0.21845,42.64536 23.24563,88.95993 2.14286,127.85715 C 798.65554,766.80188 516.53423,658.84702 521.54033,612.6479 z"
         id="path3781"
         inkscape:connector-curvature="0"
         sodipodi:nodetypes="cccccc" />
      <path
         style="fill:#ffdddd;fill-opacity:1;stroke:#000000;stroke-width:6"
         d="m 515.71429,523.50003 c 1.34147,-74.80735 260.23245,-178.21349 239.51533,-16.83542 -5.36734,41.80934 -15.6407,46.15069 -19.94155,67.09915 -4.24985,20.70004 29.456,41.28949 8.37044,106.36727 -30.69909,94.74874 -192.4833,12.54019 -218.02041,-52.66139 z"
         id="path3783"
         inkscape:connector-curvature="0"
         sodipodi:nodetypes="cssscc" />
      <path
         sodipodi:nodetypes="sscs"
         inkscape:connector-curvature="0"
         id="path3785"
         d="m 724.26067,709.67783 c -9.44788,13.58364 -29.86833,14.22691 -48.53732,13.27965 -58.46226,-2.96638 -133.39006,-52.86154 -150.08525,-95.48784 2.46911,-4.44439 221.87579,48.776 198.62257,82.20819 z"
         style="fill:#fad1d1;fill-opacity:1;stroke:#000000;stroke-width:6" />
      <path
         style="fill:#ffd5d5;fill-opacity:1;stroke:#000000;stroke-width:4;stroke-linecap:round;stroke-miterlimit:4;stroke-opacity:1;stroke-dasharray:none;stroke-dashoffset:0"
         d="m 579.74582,562.37568 c 25.83586,-0.55417 62.64484,-21.73341 83.88384,-36.52998"
         id="path3787"
         inkscape:connector-curvature="0"
         sodipodi:nodetypes="cc" />
      <path
         style="fill:#ffd5d5;fill-opacity:1;stroke:#000000;stroke-width:4;stroke-linecap:round;stroke-miterlimit:4;stroke-opacity:1;stroke-dasharray:none;stroke-dashoffset:0"
         d="m 584.80327,576.69755 c 41.30457,10.91293 50.93081,20.12005 64.55201,30.02546"
         id="path3789"
         inkscape:connector-curvature="0"
         sodipodi:nodetypes="cc" />
      <path
         sodipodi:nodetypes="cccccc"
         inkscape:connector-curvature="0"
         id="path2988"
         d="m 465.71429,584.07647 c -91.20822,3.23651 -327.50985,27.34606 -350,124.28571 47.69309,-21.0071 91.07026,-13.0363 134.28571,4.28571 0.21845,42.64536 -23.24563,88.95993 -2.14286,127.85715 3.59908,-73.70316 285.72039,-181.65802 280.71429,-227.85714 z"
         style="fill:#ffdddd;fill-opacity:1;stroke:#000000;stroke-width:6;stroke-linecap:round;stroke-miterlimit:4;stroke-opacity:1;stroke-dasharray:none;stroke-dashoffset:0" />
      <path
         sodipodi:nodetypes="cssscc"
         inkscape:connector-curvature="0"
         id="path2982"
         d="M 534.39747,523.50003 C 533.056,448.69268 274.16502,345.28654 294.88214,506.66461 c 5.36734,41.80934 15.6407,46.15069 19.94155,67.09915 4.24985,20.70004 -29.456,41.28949 -8.37044,106.36727 30.69909,94.74874 192.4833,12.54019 218.02041,-52.66139 z"
         style="fill:#ffdddd;stroke:#000000;stroke-width:6;fill-opacity:1" />
      <path
         style="fill:#fad1d1;stroke:#000000;stroke-width:6;fill-opacity:1"
         d="m 325.85109,709.67783 c 9.44788,13.58364 29.86833,14.22691 48.53732,13.27965 58.46226,-2.96638 133.39006,-52.86154 150.08525,-95.48784 -2.46911,-4.44439 -221.87579,48.776 -198.62257,82.20819 z"
         id="path3001"
         inkscape:connector-curvature="0"
         sodipodi:nodetypes="sscs" />
      <path
         sodipodi:nodetypes="cc"
         inkscape:connector-curvature="0"
         id="path2997"
         d="M 470.36594,562.37568 C 444.53008,561.82151 407.7211,540.64227 386.4821,525.8457"
         style="fill:#ffd5d5;fill-opacity:1;stroke:#000000;stroke-width:4;stroke-linecap:round;stroke-miterlimit:4;stroke-opacity:1;stroke-dasharray:none;stroke-dashoffset:0" />
      <path
         transform="translate(-2.3903198,303.0426)"
         sodipodi:nodetypes="sssss"
         inkscape:connector-curvature="0"
         id="path2986"
         d="m 587.14284,265.52304 c 0,43.3938 -27.65189,80 -58.57143,78.57143 -42.30298,-1.95451 -62.59387,-35.36447 -58.57143,-78.57143 4.68853,-50.36179 26.6824,-82.57628 58.57143,-81.42857 43.74466,1.5744 58.57143,38.03477 58.57143,81.42857 z"
         style="fill:#ffdddd;stroke:#000000;stroke-width:6;stroke-linecap:round;stroke-miterlimit:4;stroke-opacity:1;stroke-dashoffset:0;fill-opacity:1" />
      <path
         sodipodi:nodetypes="cc"
         inkscape:connector-curvature="0"
         id="path2999"
         d="m 465.30849,576.69755 c -41.30457,10.91293 -50.93081,20.12005 -64.55201,30.02546"
         style="fill:#ffd5d5;fill-opacity:1;stroke:#000000;stroke-width:4;stroke-linecap:round;stroke-miterlimit:4;stroke-opacity:1;stroke-dasharray:none;stroke-dashoffset:0" />
    </g>
  </g>
</svg>
